<mxfile host="app.diagrams.net" modified="2023-08-28T20:51:21.592Z" agent="Mozilla/5.0 (X11; Linux x86_64) AppleWebKit/537.36 (KHTML, like Gecko) Chrome/116.0.0.0 Safari/537.36" etag="RDODnRys1E_3D2hLG3Ip" version="21.6.9" type="github">
  <diagram name="PÃ¡gina-1" id="aWe7KM1cLbGeV50ehOjc">
    <mxGraphModel dx="2191" dy="1913" grid="1" gridSize="10" guides="1" tooltips="1" connect="1" arrows="1" fold="1" page="1" pageScale="1" pageWidth="827" pageHeight="1169" math="0" shadow="0">
      <root>
        <mxCell id="0" />
        <mxCell id="1" parent="0" />
        <mxCell id="XNv7TvhyOqcc_81UNLbF-1" value="" style="rounded=0;whiteSpace=wrap;html=1;fillColor=#f8cecc;strokeColor=#b85450;" parent="1" vertex="1">
          <mxGeometry x="-40" y="350" width="840" height="170" as="geometry" />
        </mxCell>
        <mxCell id="mrGHJU6OX8BGPNTDZ4Nh-1" value="AuthenticationParams" style="rounded=0;whiteSpace=wrap;html=1;strokeColor=#941967;" vertex="1" parent="1">
          <mxGeometry x="150" y="405" width="150" height="35" as="geometry" />
        </mxCell>
        <mxCell id="mrGHJU6OX8BGPNTDZ4Nh-2" value="AccountEntity" style="rounded=0;whiteSpace=wrap;html=1;strokeColor=#941967;" vertex="1" parent="1">
          <mxGeometry x="520" y="405" width="150" height="35" as="geometry" />
        </mxCell>
        <mxCell id="mrGHJU6OX8BGPNTDZ4Nh-3" value="&lt;span style=&quot;color: rgb(0, 0, 0); font-family: Helvetica; font-size: 12px; font-style: normal; font-variant-ligatures: normal; font-variant-caps: normal; font-weight: 400; letter-spacing: normal; orphans: 2; text-align: center; text-indent: 0px; text-transform: none; widows: 2; word-spacing: 0px; -webkit-text-stroke-width: 0px; background-color: rgb(251, 251, 251); text-decoration-thickness: initial; text-decoration-style: initial; text-decoration-color: initial; float: none; display: inline !important;&quot;&gt;Authentication&lt;/span&gt;" style="rounded=1;whiteSpace=wrap;html=1;dashed=1;strokeColor=#941967;" vertex="1" parent="1">
          <mxGeometry x="350" y="405" width="120" height="35" as="geometry" />
        </mxCell>
        <mxCell id="mrGHJU6OX8BGPNTDZ4Nh-4" value="" style="endArrow=classic;html=1;rounded=0;exitX=0;exitY=0.5;exitDx=0;exitDy=0;" edge="1" parent="1" source="mrGHJU6OX8BGPNTDZ4Nh-3" target="mrGHJU6OX8BGPNTDZ4Nh-1">
          <mxGeometry width="50" height="50" relative="1" as="geometry">
            <mxPoint x="370" y="400" as="sourcePoint" />
            <mxPoint x="420" y="350" as="targetPoint" />
          </mxGeometry>
        </mxCell>
        <mxCell id="mrGHJU6OX8BGPNTDZ4Nh-5" value="" style="endArrow=classic;html=1;rounded=0;exitX=1;exitY=0.5;exitDx=0;exitDy=0;entryX=0;entryY=0.5;entryDx=0;entryDy=0;" edge="1" parent="1" source="mrGHJU6OX8BGPNTDZ4Nh-3" target="mrGHJU6OX8BGPNTDZ4Nh-2">
          <mxGeometry width="50" height="50" relative="1" as="geometry">
            <mxPoint x="360" y="433" as="sourcePoint" />
            <mxPoint x="310" y="433" as="targetPoint" />
          </mxGeometry>
        </mxCell>
        <mxCell id="mrGHJU6OX8BGPNTDZ4Nh-6" value="&lt;b&gt;Domain&lt;/b&gt;" style="text;html=1;align=center;verticalAlign=middle;resizable=0;points=[];autosize=1;strokeColor=none;fillColor=none;" vertex="1" parent="1">
          <mxGeometry x="730" y="318" width="70" height="30" as="geometry" />
        </mxCell>
        <mxCell id="mrGHJU6OX8BGPNTDZ4Nh-7" value="" style="rounded=0;whiteSpace=wrap;html=1;fillColor=#CCFFCC;strokeColor=#b85450;" vertex="1" parent="1">
          <mxGeometry x="-40" width="840" height="242" as="geometry" />
        </mxCell>
        <mxCell id="mrGHJU6OX8BGPNTDZ4Nh-8" value="RemoteAuthenticationParams" style="rounded=0;whiteSpace=wrap;html=1;strokeColor=#00FF00;" vertex="1" parent="1">
          <mxGeometry x="90" y="140" width="180" height="35" as="geometry" />
        </mxCell>
        <mxCell id="mrGHJU6OX8BGPNTDZ4Nh-10" value="&lt;span style=&quot;color: rgb(0, 0, 0); font-family: Helvetica; font-size: 12px; font-style: normal; font-variant-ligatures: normal; font-variant-caps: normal; font-weight: 400; letter-spacing: normal; orphans: 2; text-align: center; text-indent: 0px; text-transform: none; widows: 2; word-spacing: 0px; -webkit-text-stroke-width: 0px; background-color: rgb(251, 251, 251); text-decoration-thickness: initial; text-decoration-style: initial; text-decoration-color: initial; float: none; display: inline !important;&quot;&gt;HttpClient&lt;/span&gt;" style="rounded=1;whiteSpace=wrap;html=1;dashed=1;strokeColor=#00FF00;" vertex="1" parent="1">
          <mxGeometry x="350" y="30" width="120" height="35" as="geometry" />
        </mxCell>
        <mxCell id="mrGHJU6OX8BGPNTDZ4Nh-13" value="&lt;b&gt;Data&lt;br&gt;&lt;/b&gt;" style="text;html=1;align=center;verticalAlign=middle;resizable=0;points=[];autosize=1;strokeColor=none;fillColor=none;" vertex="1" parent="1">
          <mxGeometry x="750" y="-30" width="50" height="30" as="geometry" />
        </mxCell>
        <mxCell id="mrGHJU6OX8BGPNTDZ4Nh-15" value="RemoteAuthentication" style="rounded=0;whiteSpace=wrap;html=1;strokeColor=#00FF00;" vertex="1" parent="1">
          <mxGeometry x="320" y="140" width="180" height="35" as="geometry" />
        </mxCell>
        <mxCell id="mrGHJU6OX8BGPNTDZ4Nh-16" value="RemoteAccountModel&lt;br&gt;" style="rounded=0;whiteSpace=wrap;html=1;strokeColor=#00FF00;" vertex="1" parent="1">
          <mxGeometry x="550" y="140" width="180" height="35" as="geometry" />
        </mxCell>
        <mxCell id="mrGHJU6OX8BGPNTDZ4Nh-17" value="" style="endArrow=classic;html=1;rounded=0;exitX=0;exitY=0.5;exitDx=0;exitDy=0;entryX=1;entryY=0.5;entryDx=0;entryDy=0;" edge="1" parent="1" source="mrGHJU6OX8BGPNTDZ4Nh-15" target="mrGHJU6OX8BGPNTDZ4Nh-8">
          <mxGeometry width="50" height="50" relative="1" as="geometry">
            <mxPoint x="364" y="58" as="sourcePoint" />
            <mxPoint x="218" y="150" as="targetPoint" />
          </mxGeometry>
        </mxCell>
        <mxCell id="mrGHJU6OX8BGPNTDZ4Nh-18" value="" style="endArrow=classic;html=1;rounded=0;exitX=1;exitY=0.5;exitDx=0;exitDy=0;entryX=0;entryY=0.5;entryDx=0;entryDy=0;" edge="1" parent="1" source="mrGHJU6OX8BGPNTDZ4Nh-15" target="mrGHJU6OX8BGPNTDZ4Nh-16">
          <mxGeometry width="50" height="50" relative="1" as="geometry">
            <mxPoint x="334" y="168" as="sourcePoint" />
            <mxPoint x="280" y="168" as="targetPoint" />
          </mxGeometry>
        </mxCell>
        <mxCell id="mrGHJU6OX8BGPNTDZ4Nh-20" value="" style="endArrow=classic;html=1;rounded=0;exitX=0.5;exitY=0;exitDx=0;exitDy=0;entryX=0.5;entryY=1;entryDx=0;entryDy=0;" edge="1" parent="1" source="mrGHJU6OX8BGPNTDZ4Nh-15" target="mrGHJU6OX8BGPNTDZ4Nh-10">
          <mxGeometry width="50" height="50" relative="1" as="geometry">
            <mxPoint x="514" y="168" as="sourcePoint" />
            <mxPoint x="570" y="168" as="targetPoint" />
          </mxGeometry>
        </mxCell>
        <mxCell id="mrGHJU6OX8BGPNTDZ4Nh-21" value="" style="endArrow=classic;html=1;rounded=0;exitX=0.75;exitY=1;exitDx=0;exitDy=0;" edge="1" parent="1" source="mrGHJU6OX8BGPNTDZ4Nh-8" target="mrGHJU6OX8BGPNTDZ4Nh-1">
          <mxGeometry width="50" height="50" relative="1" as="geometry">
            <mxPoint x="424" y="150" as="sourcePoint" />
            <mxPoint x="424" y="75" as="targetPoint" />
          </mxGeometry>
        </mxCell>
        <mxCell id="mrGHJU6OX8BGPNTDZ4Nh-22" value="" style="endArrow=classic;html=1;rounded=0;exitX=0.5;exitY=1;exitDx=0;exitDy=0;" edge="1" parent="1" source="mrGHJU6OX8BGPNTDZ4Nh-15" target="mrGHJU6OX8BGPNTDZ4Nh-3">
          <mxGeometry width="50" height="50" relative="1" as="geometry">
            <mxPoint x="235" y="185" as="sourcePoint" />
            <mxPoint x="235" y="415" as="targetPoint" />
          </mxGeometry>
        </mxCell>
        <mxCell id="mrGHJU6OX8BGPNTDZ4Nh-23" value="" style="endArrow=classic;html=1;rounded=0;exitX=0.25;exitY=1;exitDx=0;exitDy=0;entryX=0.5;entryY=0;entryDx=0;entryDy=0;" edge="1" parent="1" source="mrGHJU6OX8BGPNTDZ4Nh-16" target="mrGHJU6OX8BGPNTDZ4Nh-2">
          <mxGeometry width="50" height="50" relative="1" as="geometry">
            <mxPoint x="424" y="185" as="sourcePoint" />
            <mxPoint x="420" y="415" as="targetPoint" />
          </mxGeometry>
        </mxCell>
      </root>
    </mxGraphModel>
  </diagram>
</mxfile>
